<?xml version="1.0" encoding="utf-8"?>
<!-- Generator: Adobe Illustrator 16.0.0, SVG Export Plug-In . SVG Version: 6.00 Build 0)  -->
<!DOCTYPE svg PUBLIC "-//W3C//DTD SVG 1.1//EN" "http://www.w3.org/Graphics/SVG/1.1/DTD/svg11.dtd">
<svg version="1.1" id="Layer_1" xmlns="http://www.w3.org/2000/svg" xmlns:xlink="http://www.w3.org/1999/xlink" x="0px" y="0px"
	 width="500px" height="250px" viewBox="0 0 500 250" enable-background="new 0 0 500 250" xml:space="preserve">
<g>
	<rect x="92.776" y="105.707" transform="matrix(0.9977 0.0671 -0.0671 0.9977 7.9172 -6.4462)" width="14.3" height="17.875"/>
	<rect x="80.7" y="212.742" transform="matrix(0.9977 0.0684 -0.0684 0.9977 14.7711 -5.0347)" width="0.357" height="0.714"/>
	<g>
		<path fill="#FFFFFF" d="M81.812,103.198c6.638-0.621,13.349-3.767,19.005-7.232c0.221-1.343,0.264-2.916,0.108-4.794
			c-0.206-2.461-0.945-3.968-4.121-4.385c-4.528-0.582-8.903-0.702-13.042-0.358c-23.041,1.922-40.321,13.4-43.13,19.029
			c-1.48,3.05-2.53,10.787-2.234,14.335c0.666,7.992,8.773,8.605,12.227,8.868c0.372,0.03,0.878,0.067,1.497,0.115
			c3.725,0.279,11.478,0.86,18.382,1.952c10.278,1.625,11.911,3.313,12.164,3.733c-0.978,2.096-10.39,10.76-39.638,12.769
			c0.551-0.56,1.014-1.325,0.926-2.373c-0.094-1.129-0.817-1.874-1.888-1.947c-0.156-0.011-0.318-0.008-0.512,0.008
			c-1.846,0.155-7.876,2.67-9.257,4.031l-0.057,0.06c-1.529,1.692-4.959,7.678-4.73,10.42c0.295,3.544,3.584,5.552,9.774,5.969
			c3.303,0.222,6.607-0.054,8.382-0.201c4.038-0.337,18.15-1.816,30.187-6.706c12.925-5.252,19.352-12.894,18.584-22.099
			c-0.413-4.942-5.118-10.87-17.096-12.681c-6.638-0.975-24.033-3.527-26.146-4.91c-0.001-0.023-0.002-0.046-0.004-0.067
			c0.217-0.743,2.448-3.533,8.153-6.604c4.164-2.241,11.083-5.098,21.388-6.85c-0.291,0.015-0.581,0.026-0.87,0.03
			c0.29-0.003,0.58-0.015,0.87-0.03c0.392-0.066,0.787-0.132,1.189-0.195C81.886,103.122,81.85,103.16,81.812,103.198z"/>
		<path d="M92.675,86.381c1.361,0.092,2.738,0.226,4.129,0.405c3.176,0.417,3.916,1.924,4.121,4.385
			c0.156,1.878,0.113,3.451-0.108,4.794c-5.657,3.465-12.368,6.611-19.005,7.232c0.038-0.038,0.074-0.077,0.112-0.114
			c-0.403,0.062-0.797,0.128-1.189,0.195c-0.291,0.015-0.581,0.026-0.87,0.03c0.29-0.003,0.58-0.015,0.87-0.03
			c-10.305,1.752-17.224,4.609-21.388,6.85c-5.705,3.072-7.936,5.862-8.153,6.604c0.002,0.021,0.003,0.044,0.004,0.067
			c2.113,1.383,19.509,3.936,26.146,4.91c11.978,1.811,16.683,7.739,17.096,12.681c0.768,9.205-5.659,16.847-18.584,22.099
			c-12.037,4.89-26.149,6.369-30.187,6.706c-1.775,0.147-5.08,0.423-8.382,0.201c-6.19-0.417-9.479-2.425-9.774-5.969
			c-0.229-2.742,3.201-8.728,4.73-10.42l0.057-0.06c1.381-1.361,7.411-3.876,9.257-4.031c0.193-0.016,0.356-0.019,0.512-0.008
			c1.071,0.073,1.794,0.818,1.888,1.947c0.088,1.048-0.375,1.813-0.926,2.373c29.248-2.009,38.66-10.673,39.638-12.769
			c-0.253-0.42-1.886-2.108-12.164-3.733c-6.904-1.092-14.657-1.673-18.382-1.952c-0.619-0.048-1.125-0.085-1.497-0.115
			c-3.453-0.263-11.561-0.876-12.227-8.868c-0.296-3.549,0.754-11.286,2.234-14.335c2.809-5.629,20.089-17.106,43.13-19.029
			C86.628,86.191,89.609,86.175,92.675,86.381 M93.561,73.217L93.561,73.217c-3.716-0.25-7.382-0.229-10.894,0.065
			c-15.05,1.254-26.799,5.855-34.005,9.495c-5.72,2.888-15.904,8.911-19.836,16.791l-0.033,0.065l-0.032,0.066
			c-2.9,5.977-3.917,16.323-3.513,21.191c0.388,4.643,2.055,8.797,4.784,12.145c-4.065,1.897-5.925,3.464-6.994,4.516l-0.137,0.136
			l-0.133,0.141l-0.058,0.059l-0.131,0.138l-0.128,0.142c-2.359,2.611-4.314,6.313-5.045,7.784
			c-2.39,4.804-3.356,8.799-3.042,12.574c0.495,5.933,3.756,11.152,8.948,14.321c3.51,2.146,7.792,3.361,13.09,3.718
			c4.293,0.288,8.393-0.053,10.363-0.217c5.778-0.482,20.665-2.189,34.058-7.631c8.441-3.43,15.021-7.905,19.558-13.299
			c5.388-6.406,7.88-14.055,7.208-22.12c-0.519-6.213-3.641-12.057-8.794-16.454c-1.348-1.149-2.814-2.19-4.397-3.121
			c4.304-1.538,8.753-3.709,13.313-6.503l5.148-3.153l0.979-5.958c0.404-2.46,0.481-5.086,0.235-8.03
			c-0.126-1.517-0.512-6.129-3.916-10.259c-1.934-2.344-5.521-5.308-11.63-6.111l-0.021-0.003l-0.02-0.002
			C96.837,73.488,95.181,73.326,93.561,73.217L93.561,73.217L93.561,73.217z"/>
	</g>
	<g>
		<path fill="#FFFFFF" d="M471.412,103.901l-1.636,1.534c-0.444,0.417-0.91,0.859-1.396,1.321
			c-4.637,4.404-11.646,11.06-17.626,11.559c-0.487,0.041-0.962,0.046-1.412,0.016c-0.908-0.061-3.67-0.247-3.682-3.176l0.008-1.288
			c20.471-8.864,22.959-17.387,22.598-21.712c-0.16-1.916-1.231-5.183-6.622-5.545c-0.782-0.053-1.635-0.042-2.522,0.033
			c-6.944,0.525-14.286,4.703-19.636,11.175c-3.156,3.818-5.274,8.057-6.204,12.245c-7.811,8.155-12.373,10.136-14.84,10.342
			c-1.632,0.136-2.796-0.753-3.916-2.988c-0.537-1.894-0.521-4.227,0.022-5.698c20.488-23.463,22.052-32.661,21.959-42.23
			c-0.012-1.902-0.924-4.792-3.389-4.958c-0.153-0.01-0.312-0.009-0.468,0.004c-5.716,0.477-19.38,20.388-20.915,22.654
			c-4.723,6.916-7.795,15.504-8.659,23.746c-0.502,0.477-0.99,0.978-1.466,1.468c-1.513,1.558-2.965,3.049-4.729,3.62
			c1.336-3.403,2.493-6.693,2.166-10.629c-0.188-2.259-0.704-4.613-2.759-5.953c0.495-0.642,0.828-1.465,0.737-2.556
			c-0.214-2.549-2.391-4.27-5.684-4.492c-0.595-0.04-1.178-0.023-1.739,0.049c-6.579,0.876-13.822,4.458-18.904,9.351
			c-5.6,5.097-8.23,10.152-8.292,16.106c-2.724,2.209-8.104,6.544-10.404,6.735c-0.062,0.005-0.122,0.005-0.181,0.001
			c-0.406-0.027-0.629-0.235-0.661-0.618l-0.013-0.15c-0.041-0.417-0.096-0.985,4.925-8.207c0.101-0.14,0.224-0.307,0.365-0.498
			c2.874-3.919,4.624-6.727,4.468-8.604c-0.237-2.847-3.037-5.519-5.99-5.718c-0.256-0.017-0.511-0.015-0.76,0.006
			c-1.492,0.125-4.355,1.057-12.002,7.696c-4.597,3.993-9.523,8.828-12.781,12.029c-0.319,0.315-0.628,0.617-0.923,0.905
			l-0.024-0.312c3.278-3.852,11.61-14.019,19.303-24.326c13.877-18.586,15.247-23.541,15.072-25.65
			c-0.174-2.064-2.034-3.465-4.856-3.655c-0.421-0.028-0.829-0.026-1.219,0.006c-4.733,0.395-23.663,21.517-33.234,40.784
			c-1.802,3.569-3.334,6.848-4.186,10.404c-10.027,8.105-11.452,8.565-13.094,9.094l-0.254,0.082
			c-0.262-0.049-0.765-0.615-0.765-0.941l-0.001-0.057c-0.072-1.833,0.213-3.213,7.175-12.306c1.53-1.977,3.148-4.262,2.975-6.361
			c-0.139-1.657-1.293-3.142-2.134-4.225c-0.102-0.13-0.199-0.256-0.29-0.376l-0.047-0.059c-0.048-0.059-0.182-0.271-0.281-0.427
			c-0.947-1.483-1.771-2.624-2.987-2.706c-0.093-0.006-0.186-0.006-0.278,0.002c-1.41,0.118-3.154,1.518-5.329,3.577l-14.645,13.664
			c2.226-3.87,4.229-7.863,3.989-10.743c-0.268-3.2-2.259-5.39-5.071-5.579c-0.312-0.021-0.635-0.018-0.962,0.009
			c-6.746,0.564-21.286,17.36-27.145,24.457c0.066-0.099,0.135-0.196,0.204-0.293c0.256-0.371,0.521-0.753,0.756-1.137l0.022-0.042
			c0.744-1.313,1.76-2.528,2.833-3.817c0.699-0.839,1.422-1.707,2.085-2.623c0.103-0.142,0.219-0.301,0.346-0.472
			c1.815-2.473,3.572-5.067,3.392-7.229c-0.198-2.399-2.438-3.052-4.279-3.176c-0.414-0.028-0.812-0.035-1.165-0.042
			c-0.22-0.004-0.425-0.008-0.606-0.018c-2.261-0.111-4.843,1.25-7.467,3.937c-3.227,3.305-6.456,8.636-7.998,14.067
			c-0.546,0.529-1.139,1.13-1.756,1.755c-2.779,2.815-6.978,7.066-9.769,7.301c-0.744,0.062-1.738-0.482-1.802-1.244
			c-0.21-2.525,2.205-6.622,6.438-10.935l0.139-0.135c2.191-2.139,4.261-4.159,3.952-7.868l-0.022-0.156
			c-0.409-2.083-1.397-3.875-3.206-5.81l-0.026-0.027c-0.454-0.461-1.094-0.714-1.956-0.771c-1.81-0.122-4.936,0.616-9.668,1.731
			c-1.027,0.243-2.141,0.505-3.327,0.778c0.029-0.348,0.032-0.712,0.001-1.089c-0.127-1.524-1.413-2.754-2.992-2.86
			c-0.163-0.011-0.33-0.009-0.494,0.005c-3.146,0.262-13.406,8.848-12.725,17.021c0.118,1.415,0.489,3.009,2.104,3.756
			c-1.512,2.356-3.034,4.24-4.708,5.84l-0.552,0.526l0.108,0.616c-2.542,2.111-5.13,3.949-7.197,4.12
			c-0.19,0.016-0.374,0.021-0.548,0.008c-1.155-0.077-1.2-0.619-1.219-0.851c-0.174-2.08,2.146-5.536,4.01-8.312
			c2.025-3.016,3.624-5.396,3.461-7.344c-0.15-1.803-0.845-2.968-1.715-3.749c1.074-0.778,1.862-1.753,1.765-2.915
			c-0.154-1.854-2.592-5.31-6.898-5.599c-0.515-0.035-1.049-0.024-1.593,0.033c-8.696,0.952-24.62,9.348-32.116,18.745
			c-1.547,1.94-2.679,3.839-3.402,5.684c-1.229,0.994-2.533,1.85-3.512,1.93c-0.551,0.047-0.927-0.022-1.409-0.229
			c2.888-4.303,5.404-8.95,4.96-14.275c-0.167-1.998-1.336-5.833-4.566-6.051c-0.196-0.014-0.397-0.012-0.598,0.006
			c-2.573,0.214-5.606,3.033-9.009,8.367c-4.578,7.038-4.686,9.362-3.935,13.054c-0.383,0.424-0.814,0.925-1.288,1.478
			c-1.567,1.826-4.831,5.63-6.382,5.76c-0.322,0.026-0.499-0.146-0.532-0.543c-0.24-2.877,4.62-13.703,7.298-18.708
			c1.967-3.75,2.11-5.211,2.045-5.984c-0.209-2.506-4.776-2.939-5.689-3c-0.332-0.022-0.613-0.023-0.836-0.005
			c-1.242,0.104-2.709,1.212-6.182,6.411l-0.098,0.146l-12.95,15.746c-1.679,1.984-6.145,6.399-7.878,7.513
			c-0.042-0.161-0.08-0.361-0.099-0.59c-0.146-1.759,0.033-4.075,0.176-4.895c3.321-3.096,16.088-15.422,15.586-21.441
			c-0.113-1.361-0.996-3.689-5.631-4c-0.618-0.042-1.298-0.049-2.019-0.021c-2.786,0.099-4.949,1.164-12.719,10.457
			c-4.925,5.821-7.691,10.704-7.258,18.432c0.526,9.012,6.596,13.508,12.014,13.872c0.363,0.023,0.731,0.031,1.083,0.021
			c4.353-0.095,8.8-5.694,12.373-10.193c0.22-0.277,0.438-0.551,0.653-0.819c0.396,5.666,1.421,7.19,2.766,8.577
			c0.081,0.083,0.162,0.166,0.242,0.251l0.072,0.073c0.853,0.794,2.199,1.865,4.039,1.989c0.269,0.018,0.543,0.015,0.818-0.009
			c4.519-0.377,9.298-5.597,13.514-10.203c1.163-1.271,2.275-2.485,3.226-3.407c1.422,0.669,2.615,1.137,4.215,1.244
			c0.564,0.037,1.161,0.028,1.823-0.026c2.166-0.18,4.03-0.902,5.688-1.944c2.014,4.641,6.833,9.069,9.937,9.277
			c0.179,0.013,0.354,0.012,0.523-0.003c1.888-0.156,4.941-2.366,10.541-7.625l5.175-4.919c-0.906,3.061-1.292,5.463-1.149,7.175
			c0.302,3.624,2.472,6.01,5.662,6.224c0.365,0.024,0.745,0.021,1.131-0.01c5.757-0.481,18.679-13.105,22.369-18.093l0.427-0.58
			l-0.321-1.052c1.917-2.072,3.722-4.261,5.322-7.172l6.081-1.887c-3.179,4.504-6.34,9.57-5.844,15.528
			c0.322,3.869,3.167,8.15,7.801,8.461c0.392,0.026,0.795,0.022,1.195-0.011c4.89-0.406,11.898-7.388,16.395-12.474
			c0.85,3.867,2.999,9.217,7.428,9.516c0.279,0.019,0.564,0.018,0.851-0.008c2.593-0.216,4.235-2.521,5.135-3.783
			c4.172-6.125,9.306-12.639,13.822-18.292c-4.684,8.866-6.121,12.881-5.777,15.771c0.353,2.81,2.561,4.902,5.372,5.091
			c0.304,0.021,0.613,0.02,0.921-0.007c3.531-0.295,6.598-3.891,8.838-6.518c0.32-0.375,0.623-0.729,0.884-1.026l8.694-9.43
			c-1.438,3.316-2.537,6.778-2.297,9.657c0.296,3.541,3.034,6.482,6.234,6.697c0.298,0.02,0.601,0.018,0.9-0.006
			c4.421-0.37,12.032-6.271,20.03-13.628c0.462,3.203,1.805,9.527,5.615,9.784l0,0c0.182,0.012,0.395-0.371,0.581-0.388
			c1.95-0.163,3.479-2.341,6.229-5.95c2.478-3.248,5.865-7.782,11.035-12.844c-2.384,4.052-4.374,8.457-4.046,12.398
			c0.289,3.469,2.613,6.011,5.648,6.213c0.309,0.021,0.628,0.008,0.946-0.02c4.647-0.387,11.988-6.509,18.824-12.687
			c0.73,2.117,1.735,3.972,2.99,5.494c2.085,2.532,4.793,4.03,7.623,4.221c0.461,0.03,0.928,0.026,1.389-0.012
			c5.771-0.481,10.679-3.3,15.402-8.857c5.103-0.517,8.862-2.098,12.141-5.263c1.108,6.973,4.448,10.962,9.545,11.306
			c0.552,0.036,1.132,0.03,1.723-0.019c6.953-0.58,13.72-7.145,18.799-13.001c1.5,6.382,5.708,10.594,11.187,10.963
			c0.626,0.041,1.273,0.036,1.927-0.017c9.955-0.831,20.326-10.554,26.712-19.375l0.426-0.59L471.412,103.901z M456.607,95.763
			c-0.798,1.781-4.197,5.988-9.342,9.123C449.659,100.343,453.409,97.156,456.607,95.763z M424.602,83.847
			c-1.319,2.947-3.134,6.26-5.289,9.495C421.073,89.482,422.868,86.261,424.602,83.847z M172.744,141.26
			c-0.115,0.03-0.224,0.06-0.331,0.09c-0.065-0.067-0.217-0.265-0.367-0.734c-0.208-2.597-0.286-8.231,19.459-16.927
			C177.497,139.999,174.326,140.839,172.744,141.26z M376.249,125.032c-0.373,0.031-0.716,0.036-1.022,0.016l0,0
			c-1.455-0.098-2.042-0.682-2.164-2.153c-0.211-2.535,1.108-6.277,2.99-8.503c1.657-1.89,4.012-3.673,6.343-5.306
			c-0.963,2.45-1.889,5.527-1.655,8.326c0.135,1.612,0.634,2.887,1.275,4.157C380.312,123.372,378.697,124.828,376.249,125.032z"/>
		<path d="M419.312,93.342c2.155-3.235,3.97-6.548,5.289-9.495C422.868,86.261,421.073,89.482,419.312,93.342z"/>
		<path d="M456.607,95.763c-3.198,1.393-6.948,4.581-9.342,9.123C452.41,101.75,455.81,97.543,456.607,95.763z"/>
		<path d="M486.096,106.359l-2.142-6.554l-2.474-7.573c-0.013-0.407-0.036-0.799-0.067-1.174c-0.291-3.496-1.464-6.74-3.414-9.484
			l-0.484-1.483l-0.382,0.357c-0.093-0.109-0.185-0.218-0.279-0.327c-2.417-2.769-6.865-6.174-14.324-6.676
			c-1.425-0.096-2.922-0.08-4.454,0.045c-2.839,0.219-5.729,0.818-8.576,1.767c0.183-2.067,0.221-4.019,0.2-5.897
			c-0.027-3.256-0.877-6.573-2.396-9.345c-2.764-5.042-7.736-8.274-13.299-8.649c-0.811-0.054-1.637-0.048-2.449,0.02
			c-6.632,0.553-12.567,4.895-21.171,15.485c-4.552,5.604-8.459,11.275-9.561,12.899c-0.316,0.464-0.63,0.936-0.935,1.413
			c-2.295-1.087-4.88-1.768-7.66-1.955c-1.452-0.097-2.903-0.054-4.314,0.127l-0.025,0.004l-0.024,0.002
			c-5.422,0.722-11.001,2.644-16.117,5.463c0.141-0.254,0.277-0.504,0.41-0.75c3.008-5.599,4.141-9.781,3.791-13.985
			c-0.72-8.629-7.759-15.095-17.119-15.724c-1.075-0.073-2.149-0.064-3.194,0.021c-4.352,0.363-8.415,2.511-13.592,7.183
			c-3.076,2.775-6.606,6.502-10.209,10.779c-4.786,5.681-9.322,11.857-13.212,17.941c-2.959-2.195-5.966-2.866-8.133-3.012
			c-0.756-0.051-1.52-0.044-2.272,0.02c-3.965,0.331-7.13,2.043-9.815,4.115c-2.702-1.871-5.878-2.987-9.247-3.214
			c-0.97-0.065-1.958-0.057-2.941,0.025c-4.477,0.373-9.037,2.45-14.449,6.699c-1.608-0.55-3.393-0.914-5.357-1.045
			c-0.723-0.049-1.358-0.061-1.781-0.07l-0.045-0.001c-0.075,0-0.147-0.002-0.215-0.003c-3.39-0.159-8.147,0.562-13.307,4.251
			c-1.982-1.815-5.19-3.807-9.896-4.124c-2.626-0.177-5.201,0.186-8.564,0.903c-2.238-1.352-4.783-2.165-7.421-2.342
			c-0.818-0.055-1.647-0.049-2.466,0.018c-4.898,0.409-9.409,3.337-12.636,6.086c-2.862-1.721-6.12-2.755-9.503-2.982
			c-1.27-0.085-2.568-0.06-3.862,0.076l-0.026,0.003l-0.026,0.003c-8.306,0.91-17.075,5.298-21.562,7.834
			c-1.735,0.979-3.417,2.01-5.034,3.08c-2.97-3.041-6.852-4.872-11.128-5.159c-0.865-0.058-1.743-0.05-2.61,0.025
			c-2.734,0.232-5.185,1.073-7.375,2.291c-0.546-0.238-1.112-0.455-1.694-0.649c-2.618-0.877-5.141-1.151-6.412-1.237
			c-1-0.067-1.917-0.064-2.807,0.009c-1.998,0.167-3.902,0.704-5.702,1.605c-2.296-1.333-5.377-2.459-9.403-2.73
			c-1.08-0.072-2.229-0.085-3.415-0.039c-4.889,0.182-8.757,1.912-12.42,4.82c-0.085,13.173-6.994,24.895-11.649,37.053
			c-1.686,3.818-1.973,8.088-1.168,12.072c0.601,2.634,0.778,5.239,0.824,7.836c4.384,4.321,10.075,6.924,16.075,7.327
			c0.772,0.052,1.552,0.067,2.317,0.045c3.423-0.085,6.786-1.122,10.049-3.089c2.738,1.743,5.705,2.729,8.862,2.942
			c0.929,0.062,1.874,0.054,2.807-0.025c8.549-0.713,14.954-6.717,20.169-12.301c0.622,0.011,1.253-0.003,1.903-0.042
			c3.985,3.983,9.021,6.942,14.343,7.301c0.837,0.058,1.682,0.05,2.51-0.02c2.86-0.238,5.454-1.163,8.169-2.795
			c2.832,2.102,6.273,3.409,10.072,3.665c1.021,0.069,2.066,0.061,3.106-0.026c5.668-0.473,11.691-3.727,19.533-10.552
			c0.226-0.196,0.451-0.396,0.678-0.597c3.66,3.775,8.449,6.021,13.649,6.372c1.046,0.069,2.111,0.061,3.166-0.026
			c4.312-0.359,8.654-2.163,13.364-5.635c2.562,1.564,5.431,2.486,8.49,2.691c0.943,0.064,1.901,0.056,2.848-0.024
			c3.736-0.312,6.715-1.683,9.015-3.312c2.319,1.209,4.889,1.939,7.54,2.117c0.955,0.064,1.929,0.057,2.893-0.022
			c4.226-0.353,7.738-2.04,10.593-4.103c2.841,1.998,6.193,3.256,9.788,3.498c0.96,0.064,1.933,0.056,2.891-0.024
			c4.521-0.377,9.353-2.432,15.37-6.701c3.265,2.21,6.508,2.756,8.285,2.876c1.543,0.104,4.081-0.011,6.771-1.331
			c1.367-0.502,2.679-1.195,3.932-2.078c2.571,1.617,5.545,2.625,8.745,2.84c0.933,0.062,1.894,0.05,2.937-0.038
			c5.139-0.428,10.137-2.875,15.82-7.06c3.479,2.403,7.454,3.822,11.628,4.104c1.109,0.074,2.24,0.065,3.36-0.027
			c4.828-0.403,9.395-1.827,13.585-4.236c2.475-1.424,4.811-3.17,7.056-5.284c3.821,3.975,8.905,6.346,14.476,6.721
			c1.212,0.081,2.46,0.069,3.706-0.034c5.92-0.493,11.227-3.025,15.814-6.309c3.544,2.477,7.694,3.984,12.188,4.287
			c1.285,0.086,2.599,0.076,3.907-0.033c7.193-0.601,14.51-3.782,21.743-9.459c6.629-5.201,11.578-11.207,14.561-15.327l0.425-0.588
			l3.942-5.445L486.096,106.359z M473.127,111.045c-6.386,8.821-16.757,18.543-26.712,19.375c-0.653,0.053-1.301,0.058-1.927,0.017
			c-5.479-0.369-9.687-4.581-11.187-10.963c-5.079,5.856-11.846,12.421-18.799,13.001c-0.591,0.049-1.171,0.055-1.723,0.019
			c-5.097-0.344-8.437-4.333-9.545-11.306c-3.278,3.166-7.038,4.747-12.141,5.263c-4.724,5.558-9.631,8.376-15.402,8.857
			c-0.461,0.038-0.928,0.042-1.389,0.012c-2.83-0.19-5.538-1.688-7.623-4.221c-1.255-1.521-2.26-3.377-2.99-5.494
			c-6.836,6.178-14.177,12.3-18.824,12.687c-0.318,0.027-0.638,0.04-0.946,0.02l0,0c-3.035-0.203-5.359-2.745-5.648-6.213
			c-0.328-3.941,1.662-8.346,4.046-12.398c-5.17,5.062-8.558,9.596-11.035,12.844c-2.751,3.609-4.279,5.787-6.229,5.95
			c-0.187,0.017-0.399,0.399-0.581,0.388l0,0c-3.811-0.257-5.153-6.581-5.615-9.784c-7.998,7.357-15.609,13.258-20.03,13.628
			c-0.3,0.023-0.603,0.025-0.9,0.006l0,0c-3.201-0.215-5.938-3.156-6.234-6.697c-0.24-2.879,0.858-6.341,2.297-9.657l-8.694,9.43
			c-0.261,0.297-0.563,0.651-0.884,1.026c-2.24,2.627-5.307,6.223-8.838,6.518c-0.308,0.026-0.617,0.028-0.921,0.007
			c-2.812-0.188-5.02-2.281-5.372-5.091c-0.344-2.891,1.094-6.905,5.777-15.771c-4.517,5.653-9.65,12.167-13.822,18.292
			c-0.899,1.263-2.542,3.567-5.135,3.783c-0.286,0.025-0.571,0.026-0.851,0.008c-4.43-0.299-6.578-5.648-7.428-9.516
			c-4.496,5.086-11.504,12.067-16.395,12.474c-0.4,0.033-0.803,0.037-1.195,0.011c0,0,0,0,0,0c-4.634-0.311-7.478-4.592-7.8-8.461
			c-0.497-5.958,2.665-11.024,5.844-15.528l-6.081,1.887c-1.6,2.911-3.406,5.1-5.322,7.172l0.321,1.052l-0.427,0.58
			c-3.69,4.987-16.612,17.611-22.369,18.093c-0.386,0.03-0.766,0.034-1.131,0.01c0,0,0,0,0,0c-3.189-0.215-5.359-2.6-5.661-6.224
			c-0.143-1.712,0.243-4.114,1.149-7.175l-5.175,4.919c-5.6,5.259-8.653,7.469-10.541,7.625c-0.168,0.015-0.344,0.016-0.523,0.003
			c-3.104-0.208-7.923-4.637-9.937-9.277c-1.658,1.042-3.522,1.765-5.688,1.944c-0.662,0.055-1.259,0.063-1.823,0.026
			c-1.6-0.107-2.793-0.575-4.215-1.244c-0.95,0.922-2.062,2.137-3.226,3.407c-4.216,4.606-8.995,9.826-13.514,10.203
			c-0.275,0.023-0.55,0.026-0.818,0.009c-1.839-0.124-3.186-1.195-4.039-1.989l-0.072-0.073c-0.08-0.085-0.161-0.168-0.242-0.251
			c-1.344-1.387-2.37-2.911-2.766-8.577c-0.215,0.269-0.433,0.542-0.653,0.819c-3.573,4.499-8.021,10.099-12.373,10.193
			c-0.352,0.011-0.72,0.003-1.083-0.021c-0.001,0-0.001,0-0.001,0c-5.417-0.365-11.487-4.861-12.013-13.872
			c-0.434-7.728,2.333-12.61,7.258-18.432c7.771-9.293,9.933-10.358,12.719-10.457c0.721-0.028,1.401-0.021,2.019,0.021
			c4.636,0.312,5.518,2.64,5.631,4c0.502,6.019-12.266,18.345-15.586,21.441c-0.144,0.819-0.323,3.136-0.176,4.895
			c0.019,0.229,0.057,0.429,0.099,0.59c1.734-1.113,6.199-5.528,7.878-7.513l12.95-15.746l0.098-0.146
			c3.472-5.199,4.94-6.308,6.182-6.411c0.224-0.018,0.504-0.017,0.836,0.005c0.913,0.062,5.48,0.495,5.689,3
			c0.065,0.773-0.078,2.235-2.045,5.984c-2.678,5.004-7.538,15.831-7.298,18.708c0.029,0.352,0.17,0.525,0.426,0.543
			c0.033,0.001,0.068,0.002,0.106,0c1.552-0.13,4.815-3.934,6.382-5.76c0.474-0.553,0.904-1.054,1.288-1.478
			c-0.751-3.692-0.643-6.017,3.935-13.054c3.403-5.334,6.436-8.153,9.009-8.367c0.201-0.018,0.402-0.02,0.598-0.006
			c3.23,0.217,4.399,4.053,4.566,6.051c0.443,5.325-2.073,9.972-4.96,14.275c0.326,0.139,0.602,0.215,0.917,0.236
			c0.152,0.01,0.312,0.007,0.492-0.008c0.979-0.08,2.283-0.936,3.512-1.93c0.723-1.845,1.855-3.743,3.402-5.684
			c7.496-9.397,23.419-17.793,32.116-18.745c0.544-0.057,1.078-0.068,1.593-0.033c4.306,0.289,6.744,3.745,6.898,5.599
			c0.097,1.162-0.691,2.137-1.765,2.915c0.87,0.781,1.565,1.946,1.715,3.749c0.163,1.948-1.437,4.328-3.461,7.344
			c-1.864,2.775-4.184,6.231-4.01,8.312c0.019,0.231,0.064,0.773,1.219,0.851c0.174,0.013,0.358,0.008,0.548-0.008
			c2.067-0.171,4.655-2.009,7.197-4.12l-0.108-0.616l0.552-0.526c1.674-1.6,3.196-3.483,4.708-5.84
			c-1.615-0.747-1.987-2.341-2.104-3.756c-0.682-8.173,9.579-16.76,12.725-17.021c0.164-0.014,0.331-0.016,0.494-0.005
			c1.579,0.106,2.865,1.336,2.992,2.86c0.031,0.376,0.028,0.741-0.001,1.089c1.186-0.273,2.3-0.536,3.327-0.778
			c4.732-1.116,7.858-1.854,9.668-1.731c0.862,0.057,1.502,0.311,1.956,0.771l0.026,0.027c1.809,1.935,2.796,3.727,3.206,5.81
			l0.022,0.156c0.309,3.708-1.761,5.729-3.952,7.868l-0.139,0.135c-4.233,4.313-6.648,8.41-6.438,10.935
			c0.058,0.688,0.872,1.196,1.577,1.244c0.077,0.005,0.151,0.005,0.225,0c2.791-0.234,6.99-4.485,9.769-7.301
			c0.617-0.625,1.21-1.226,1.756-1.755c1.542-5.431,4.771-10.762,7.998-14.067c2.624-2.688,5.206-4.048,7.467-3.937
			c0.182,0.01,0.387,0.013,0.606,0.018c0.353,0.007,0.751,0.014,1.165,0.042c1.841,0.124,4.081,0.776,4.279,3.176
			c0.181,2.161-1.576,4.756-3.392,7.229c-0.127,0.171-0.243,0.33-0.346,0.472c-0.663,0.917-1.386,1.784-2.085,2.623
			c-1.073,1.289-2.089,2.504-2.833,3.817l-0.022,0.042c-0.235,0.383-0.5,0.766-0.756,1.137c-0.069,0.098-0.138,0.194-0.204,0.293
			c5.858-7.097,20.398-23.893,27.145-24.457c0.327-0.027,0.649-0.03,0.962-0.009c2.812,0.189,4.804,2.379,5.071,5.579
			c0.24,2.88-1.764,6.874-3.989,10.743l14.645-13.664c2.175-2.059,3.919-3.458,5.329-3.577c0.093-0.008,0.186-0.008,0.278-0.002
			c1.216,0.082,2.04,1.223,2.987,2.706c0.1,0.155,0.233,0.368,0.281,0.427l0.047,0.059c0.091,0.12,0.188,0.246,0.29,0.376
			c0.841,1.083,1.995,2.568,2.134,4.225c0.174,2.099-1.444,4.384-2.975,6.361c-6.962,9.093-7.247,10.473-7.175,12.306l0.001,0.057
			c0,0.326,0.503,0.893,0.765,0.941l0.254-0.082c1.642-0.528,3.066-0.988,13.094-9.094c0.852-3.556,2.384-6.835,4.186-10.404
			c9.571-19.268,28.501-40.39,33.234-40.784c0.39-0.032,0.798-0.034,1.219-0.006c2.822,0.19,4.683,1.591,4.856,3.655
			c0.175,2.109-1.195,7.064-15.072,25.65c-7.692,10.307-16.024,20.475-19.303,24.326l0.024,0.312
			c0.295-0.288,0.604-0.59,0.923-0.905c3.258-3.201,8.185-8.036,12.781-12.029c7.646-6.639,10.51-7.571,12.002-7.696
			c0.249-0.021,0.504-0.022,0.76-0.006c2.953,0.199,5.753,2.871,5.99,5.718c0.156,1.878-1.594,4.685-4.468,8.604
			c-0.142,0.191-0.265,0.358-0.365,0.498c-5.021,7.222-4.966,7.79-4.925,8.207l0.013,0.15c0.032,0.383,0.255,0.591,0.661,0.618
			c0.059,0.004,0.119,0.004,0.181-0.001c2.301-0.191,7.681-4.526,10.404-6.735c0.062-5.954,2.692-11.009,8.292-16.106
			c5.082-4.893,12.325-8.474,18.904-9.351c0.562-0.072,1.145-0.089,1.739-0.049c3.293,0.222,5.47,1.942,5.684,4.492
			c0.091,1.091-0.242,1.915-0.737,2.556c2.055,1.34,2.57,3.694,2.759,5.953c0.327,3.936-0.83,7.226-2.166,10.629
			c1.764-0.571,3.216-2.062,4.729-3.62c0.476-0.49,0.964-0.991,1.466-1.468c0.864-8.241,3.937-16.83,8.659-23.746
			c1.535-2.266,15.199-22.177,20.915-22.654c0.155-0.013,0.314-0.014,0.468-0.004c2.465,0.166,3.377,3.055,3.389,4.958
			c0.093,9.569-1.471,18.767-21.959,42.23c-0.544,1.471-0.56,3.804-0.022,5.698c0.991,1.979,2.018,2.903,3.374,2.994
			c0.174,0.012,0.354,0.01,0.542-0.005c2.467-0.206,7.029-2.187,14.84-10.342c0.93-4.188,3.048-8.426,6.204-12.245
			c5.35-6.472,12.691-10.649,19.636-11.175c0.888-0.074,1.74-0.085,2.522-0.033c5.391,0.362,6.462,3.629,6.622,5.545
			c0.361,4.325-2.127,12.848-22.598,21.712l-0.008,1.288c0.012,2.93,2.773,3.115,3.682,3.176c0.45,0.03,0.925,0.025,1.412-0.016
			c5.979-0.499,12.989-7.155,17.626-11.559c0.486-0.461,0.952-0.904,1.396-1.321l1.636-1.534l2.141,6.554L473.127,111.045z"/>
		<path d="M172.047,140.615c0.149,0.47,0.301,0.667,0.367,0.734c0.106-0.03,0.216-0.06,0.331-0.09
			c1.582-0.421,4.752-1.261,18.762-17.571C171.761,132.384,171.838,138.019,172.047,140.615z"/>
		<path d="M382.396,109.086c-2.331,1.633-4.686,3.416-6.343,5.306c-1.882,2.226-3.201,5.968-2.99,8.503
			c0.122,1.471,0.709,2.055,2.164,2.153l0,0c0.307,0.021,0.649,0.016,1.022-0.016c2.448-0.205,4.063-1.66,5.767-3.463
			c-0.642-1.271-1.141-2.545-1.275-4.157C380.507,114.613,381.433,111.537,382.396,109.086z"/>
	</g>
</g>
</svg>
